<svg width="1069" height="1037" viewBox="0 0 1069 1037" fill="none" xmlns="http://www.w3.org/2000/svg">
<path d="M1785.24 927.725C1734.47 928.081 1682.96 928.364 1626.26 916.391C1569.55 904.417 1506.06 878.532 1455.19 837.555C1407.69 799.3 1376.63 752.665 1353.17 708.544C1329.71 664.422 1311.73 620.39 1281.21 576.24C1250.69 532.09 1204.12 486.102 1149.44 461.134C1047.82 414.728 974.312 460.581 875.508 438.522C812.814 424.527 742.077 381.012 699.014 329.95C632.778 251.413 635.141 167.823 561.332 91.5187C507.026 35.3786 423.839 -1.68254 354.12 -14.0252C284.401 -26.3679 224.914 -18.307 166.985 -10.2051" stroke="#D8DDE1" stroke-miterlimit="10"/>
<path d="M1779.61 933.45C1731.57 931.637 1683.45 930.193 1630.64 916.9C1594.67 907.846 1555.87 892.501 1519.55 870.792C1502.51 860.643 1486.03 848.988 1470.6 835.954C1425.83 798.139 1395.8 752.591 1372.48 709.391C1349.47 666.616 1331.77 623.649 1300.99 581.469C1276.16 547.427 1241.49 514.355 1202.46 490.768C1189.74 483.081 1176.48 476.543 1162.86 471.135C1142.79 463.103 1123.76 458.476 1105.24 455.68C1077.93 451.552 1051.66 451.785 1025.42 452.146C994.25 452.573 963.932 454.123 932.881 450.29C918.194 448.477 903.485 445.393 888.199 440.663C881.335 438.537 874.412 435.961 867.376 433.117C844.425 423.849 820.539 410.849 796.722 395.532C765.23 375.279 734.946 351.324 711.595 326.296C703.756 317.903 696.764 309.518 690.378 301.244C667.862 272.072 653.177 243.853 638.369 215.417C624.352 188.498 609.549 161.407 587.119 132.895C578.987 122.474 570.008 111.974 559.868 101.515C546.613 87.8467 532.123 75.0588 517.217 63.304C498.164 48.2779 478.698 34.808 458.119 23.4197C425.817 5.54099 391.32 -8.03459 358.431 -15.9999C348.14 -18.4918 337.962 -20.3947 327.913 -21.9569C271.212 -30.7716 218.333 -26.7442 169.105 -19.2473" stroke="#D8DDE1" stroke-miterlimit="10"/>
<path d="M1773.98 939.174C1728.67 935.189 1683.69 932.785 1635.01 917.407C1601.81 906.922 1565.81 891.352 1531.93 869.342C1516.04 859.093 1500.63 847.336 1486.01 834.35C1443.97 796.988 1414.97 752.512 1391.8 710.235C1369.24 668.802 1351.71 626.959 1320.78 586.693C1294.17 552.047 1257.18 520.416 1217.24 498.838C1203.98 491.674 1190.26 485.923 1176.29 481.131C1155.77 474.093 1136.33 470.3 1117.24 467.947C1089.73 464.558 1062.78 464.706 1035.7 463.828C1003.87 462.795 973.394 462.134 943.601 455.974C929.228 453.003 915.31 448.637 900.9 442.79C894.388 440.148 887.876 437.002 881.183 433.68C859.465 422.891 836.414 408.469 812.158 392.064C780.612 370.728 749.031 346.771 724.186 322.632C715.839 314.534 708.334 306.517 701.412 298.763C676.809 271.205 660.056 246.133 643.52 220.417C627.921 196.159 611.085 171.462 586.849 143.011C578.092 132.733 568.739 122.128 558.42 111.504C544.72 97.4068 530.159 83.9882 515.81 71.5447C497.099 55.3164 479.219 40.4897 459.653 27.8191C429.273 8.14666 396.201 -8.80592 362.761 -17.9822C352.53 -20.7905 342.47 -23.5311 332.381 -25.6573C275.831 -37.5758 220.448 -36.4022 171.246 -28.2964" stroke="#D8DDE1" stroke-miterlimit="10"/>
<path d="M1768.35 944.901C1725.77 938.746 1684.38 933.834 1639.39 917.919C1608.63 907.039 1575.81 890.121 1544.32 867.896C1529.59 857.505 1515.22 845.695 1501.42 832.754C1462.1 795.863 1434.15 752.442 1411.12 711.088C1389.01 671.002 1371.54 630.327 1340.57 591.927C1312.14 556.686 1272.82 526.521 1232.01 506.918C1218.21 500.288 1204.04 495.294 1189.71 491.14C1168.76 485.064 1148.91 482.126 1129.21 480.229C1101.52 477.56 1073.9 477.655 1045.98 475.525C1013.48 473.046 982.12 472.13 954.31 461.677C940.568 456.51 927.115 451.883 913.592 444.938C907.431 441.774 901.334 438.074 894.98 434.261C874.497 421.969 852.276 406.116 827.581 388.616C795.972 366.211 763.104 342.24 736.764 318.988C727.907 311.185 719.881 303.535 712.435 296.305C685.716 270.36 666.956 248.457 648.658 225.437C631.504 203.856 612.678 181.487 586.564 153.146C577.205 142.991 567.454 132.301 556.954 121.51C542.807 106.984 528.185 92.9193 514.385 79.8039C496.021 62.3533 479.728 46.2109 461.168 32.2369C432.717 10.8108 400.484 -7.47673 367.071 -19.9494C357.085 -23.6765 346.958 -26.6492 336.826 -29.3433C280.432 -44.3428 222.537 -46.0465 173.362 -37.3344" stroke="#D8DDE1" stroke-miterlimit="10"/>
<path d="M1762.72 950.625C1722.88 942.297 1684.82 935.633 1643.77 918.429C1615.59 906.62 1585.77 888.951 1556.7 866.448C1543.13 855.946 1529.81 844.056 1516.84 831.154C1480.23 794.753 1453.21 752.429 1430.44 711.937C1408.67 673.253 1391.3 633.742 1360.36 597.155C1330.06 561.333 1288.44 532.65 1246.79 514.992C1232.43 508.903 1217.82 504.657 1203.15 501.142C1181.77 496.025 1161.5 493.934 1141.21 492.502C1113.34 490.534 1085.03 490.604 1056.27 487.213C1023.1 483.3 992.205 477.954 965.034 467.367C951.228 461.988 938.934 455.102 926.296 447.073C920.483 443.38 914.806 439.136 908.792 434.83C889.547 421.051 868.145 403.76 843.021 385.153C811.345 361.692 777.195 337.696 749.358 315.329C739.992 307.821 731.436 300.542 723.47 293.829C694.609 269.508 673.902 250.77 653.811 230.442C635.138 211.549 614.293 191.491 586.293 163.266C576.338 153.23 566.184 142.456 555.505 131.503C540.913 116.549 526.237 101.82 512.976 88.0514C494.968 69.3536 480.253 51.9501 462.7 36.643C436.172 13.508 405.081 -7.12716 371.397 -21.9258C361.565 -26.2453 351.464 -29.7706 341.29 -33.0377C285.053 -51.0959 224.646 -55.6992 175.499 -46.38" stroke="#D8DDE1" stroke-miterlimit="10"/>
<path d="M1757.08 956.349C1719.98 945.85 1685.24 937.404 1648.15 918.938C1622.53 906.187 1595.73 887.786 1569.08 864.999C1556.67 854.388 1544.4 842.423 1532.25 829.552C1498.35 793.656 1472.37 752.363 1449.75 712.784C1428.42 675.455 1410.97 637.206 1380.14 602.382C1347.92 566.006 1304.02 538.813 1261.56 523.067C1246.63 517.528 1231.6 514.016 1216.57 511.146C1194.77 506.983 1174.07 505.734 1153.19 504.777C1125.14 503.494 1096.15 503.568 1066.55 498.902C1032.72 493.571 1001.58 485.733 975.742 473.062C962.203 466.423 950.737 458.308 938.985 449.214C933.519 444.984 928.261 440.207 922.588 435.403C904.58 420.154 883.998 401.416 858.446 381.696C826.694 357.189 791.268 333.155 761.938 311.676C752.061 304.462 742.97 297.557 734.495 291.36C703.47 268.672 680.88 253.091 658.951 235.453C638.798 219.24 615.905 201.493 586.009 173.394C575.457 163.477 564.903 152.623 554.04 141.502C539.003 126.12 524.283 110.709 511.552 96.3038C493.912 76.341 480.755 57.7167 464.216 41.054C439.6 16.2499 409.657 -6.72564 375.71 -23.899C366.029 -28.7961 355.956 -32.884 345.739 -36.7273C289.658 -57.8195 226.741 -65.3463 177.62 -55.4183" stroke="#D8DDE1" stroke-miterlimit="10"/>
<path d="M1751.45 962.073C1717.08 949.404 1685.64 939.143 1652.52 919.447C1629.46 905.729 1605.69 886.629 1581.46 863.551C1570.21 852.834 1558.99 840.795 1547.66 827.953C1516.46 792.587 1491.52 752.299 1469.06 713.632C1448.17 677.655 1430.58 640.714 1399.92 607.611C1365.74 570.709 1320.14 543.103 1276.33 531.141C1260.62 526.852 1245.38 523.374 1229.99 521.147C1207.77 517.932 1186.65 517.517 1165.17 517.049C1136.95 516.434 1107.27 516.537 1076.83 510.589C1042.33 503.848 1010.98 493.427 986.452 478.751C973.186 470.813 962.547 461.492 951.675 451.348C946.558 446.573 941.714 441.277 936.383 435.97C919.601 419.264 899.843 399.072 873.87 378.232C842.039 352.689 805.344 328.607 774.515 308.015C764.129 301.099 754.497 294.571 745.515 288.882C712.302 267.848 687.894 255.387 664.088 240.454C642.491 226.905 617.522 211.482 585.725 183.51C574.583 173.708 563.62 162.777 552.579 151.491C537.094 135.68 522.343 119.577 510.131 104.545C492.873 83.3023 481.25 63.4988 465.736 45.4539C443.01 19.0208 414.223 -6.29278 380.024 -25.8816C370.489 -31.3437 360.448 -36.0067 350.19 -40.4279C294.262 -64.5367 228.838 -75.0052 179.745 -64.4701" stroke="#D8DDE1" stroke-miterlimit="10"/>
<path d="M1745.82 967.8C1714.18 952.958 1686.02 940.838 1656.9 919.957C1636.38 905.242 1615.65 885.474 1593.84 862.103C1583.74 851.281 1573.57 839.178 1563.07 826.352C1534.56 791.534 1510.68 752.234 1488.38 714.481C1467.93 679.859 1450.14 644.273 1419.71 612.84C1383.51 575.447 1335.13 551.254 1291.11 539.216C1275.02 534.816 1259.17 532.728 1243.42 531.148C1220.78 528.878 1199.24 529.293 1177.16 529.324C1148.77 529.364 1118.4 529.52 1087.11 522.278C1051.95 514.14 1020.42 501.054 997.172 484.446C984.194 475.175 974.375 464.669 964.376 453.485C959.614 448.16 955.176 442.356 950.191 436.541C934.629 418.395 915.695 396.741 889.307 374.772C857.387 348.199 819.429 324.064 787.107 304.359C776.213 297.739 766.035 291.595 756.552 286.41C721.138 267.05 694.959 257.658 669.24 245.462C646.231 234.552 619.159 221.468 585.453 193.633C573.723 183.944 562.349 172.938 551.128 161.483C535.198 145.244 520.423 128.437 508.72 112.792C491.859 90.2526 481.736 69.3056 467.266 49.8599C446.404 21.8249 418.777 -5.8171 384.348 -27.8607C374.955 -33.8754 364.949 -39.1208 354.65 -44.1257C298.866 -71.2344 230.942 -84.6614 181.876 -73.5199" stroke="#D8DDE1" stroke-miterlimit="10"/>
<path d="M1740.2 973.524C1711.28 956.51 1686.41 942.471 1661.28 920.466C1643.29 904.714 1625.61 884.329 1606.22 860.651C1597.28 849.729 1588.15 837.562 1578.48 824.748C1552.64 790.506 1529.85 752.161 1507.69 715.324C1487.68 682.05 1469.63 647.869 1439.49 618.062C1401.22 580.23 1350.66 557.521 1305.88 547.284C1289.21 543.474 1272.95 542.072 1256.84 541.145C1233.78 539.817 1211.82 541.052 1189.14 541.592C1160.58 542.274 1129.51 542.503 1097.39 533.962C1061.56 524.433 1029.89 508.617 1007.88 490.134C995.214 479.494 986.206 467.829 977.066 455.619C972.665 449.739 968.624 443.432 963.989 437.109C949.635 417.529 931.533 394.411 904.734 371.308C872.722 343.715 833.506 319.518 799.689 300.7C788.284 294.373 777.557 288.622 767.578 283.937C729.951 266.271 702.031 259.886 674.384 250.469C649.982 242.158 620.794 231.449 585.173 203.755C572.856 194.178 561.07 183.096 549.669 171.478C533.294 154.813 518.509 137.291 507.303 121.04C490.856 97.1919 482.197 75.1288 468.789 54.2635C449.762 24.653 423.304 -5.30677 388.669 -29.8413C379.411 -36.4001 369.447 -42.234 359.109 -47.8243C303.464 -77.9155 233.045 -94.3183 184.007 -82.5673" stroke="#D8DDE1" stroke-miterlimit="10"/>
<path d="M1734.57 979.248C1708.38 960.065 1686.81 944.038 1665.66 920.975C1650.21 904.143 1635.56 883.189 1618.61 859.203C1610.82 848.186 1602.72 835.961 1593.89 823.147C1570.7 789.501 1549.02 752.09 1527.01 716.172C1507.45 684.246 1489.09 651.513 1459.27 623.292C1418.89 585.071 1366.19 563.83 1320.65 555.36C1303.4 552.151 1286.74 551.422 1270.27 551.148C1246.78 550.758 1224.41 552.807 1201.13 553.866C1172.39 555.175 1140.76 555.049 1107.68 545.65C1071.03 535.237 1039.41 516.143 1018.59 495.825C1006.27 483.792 998.054 470.988 989.762 457.755C985.725 451.316 982.073 444.515 977.793 437.678C964.631 416.673 947.37 392.086 920.163 367.849C888.05 339.237 847.586 314.976 812.271 297.044C800.358 291.013 789.081 285.658 778.602 281.464C738.755 265.516 709.108 262.071 679.523 255.477C653.732 249.727 622.43 241.419 584.889 213.877C571.984 204.408 559.787 193.256 548.205 181.472C531.385 164.379 516.601 146.139 505.878 129.289C489.864 104.125 482.625 80.9646 470.305 58.6709C453.08 27.4998 427.791 -4.76389 392.979 -31.8164C383.848 -38.9134 373.931 -45.3368 363.554 -51.5157C308.036 -84.5767 235.136 -103.965 186.125 -91.6099" stroke="#D8DDE1" stroke-miterlimit="10"/>
<path d="M1728.94 984.973C1705.48 963.617 1687.26 945.534 1670.04 921.485C1657.17 903.522 1645.51 882.058 1630.99 857.755C1624.35 846.643 1617.29 834.367 1609.31 821.549C1588.74 788.521 1568.19 752.018 1546.33 717.024C1527.22 686.443 1508.52 655.203 1479.06 628.523C1436.5 589.979 1381.73 570.17 1335.42 563.436C1317.59 560.843 1300.53 560.769 1283.7 561.154C1259.79 561.697 1236.99 564.555 1213.12 566.145C1184.2 568.071 1151.75 568.508 1117.96 557.344C1080.78 545.061 1048.98 523.651 1029.31 501.524C1017.36 488.081 1009.92 474.151 1002.46 459.9C998.794 452.899 995.52 445.605 991.593 438.255C979.615 415.828 963.2 389.776 935.592 364.395C903.376 334.773 861.663 310.436 824.855 293.394C812.431 287.657 800.603 282.704 789.631 278.998C747.564 264.788 716.184 264.223 684.67 260.489C657.484 257.268 624.075 251.393 584.615 224.005C571.125 214.644 558.513 203.422 546.752 191.472C529.485 173.95 514.717 154.986 504.467 137.542C488.903 111.05 483.043 86.8136 471.834 63.0825C456.379 30.3575 432.267 -4.19468 397.303 -33.7898C388.291 -41.4166 378.427 -48.4386 368.016 -55.2072C312.616 -91.2245 237.243 -113.615 188.26 -100.65" stroke="#D8DDE1" stroke-miterlimit="10"/>
<path d="M1723.31 990.7C1702.58 967.172 1687.78 946.981 1674.41 921.997C1664.17 902.862 1655.45 880.935 1643.37 856.31C1637.88 845.109 1631.84 832.783 1624.72 819.952C1606.74 787.564 1587.37 751.944 1565.64 717.875C1546.99 688.634 1527.92 658.93 1498.85 633.753C1454.05 594.958 1397.26 576.539 1350.2 571.511C1331.77 569.543 1314.31 570.115 1297.12 571.155C1272.79 572.629 1249.57 576.29 1225.1 578.418C1196.01 580.948 1162.86 581.515 1128.24 569.032C1090.38 555.379 1058.6 531.142 1040.02 507.215C1028.48 492.35 1021.79 477.305 1015.15 462.033C1011.87 454.472 1008.96 446.684 1005.39 438.822C994.587 414.972 979.026 387.459 951.023 360.93C918.697 330.304 875.745 305.889 837.438 289.735C824.505 284.296 812.127 279.748 800.657 276.522C756.368 264.07 723.241 266.333 689.81 265.494C661.214 264.776 625.716 261.348 584.331 234.124C570.258 224.867 557.233 213.577 545.291 201.464C527.579 183.514 512.834 163.822 503.046 145.786C487.949 117.964 483.427 92.6521 473.354 67.4855C459.636 33.2099 436.702 -3.61344 401.619 -35.7686C392.721 -43.9241 382.915 -51.5433 372.468 -58.9048C317.175 -97.8731 239.339 -123.27 190.383 -109.7" stroke="#D8DDE1" stroke-miterlimit="10"/>
<path d="M1717.67 996.423C1699.68 970.725 1688.39 948.399 1678.79 922.504C1671.25 902.179 1665.37 879.809 1655.75 854.857C1651.4 843.566 1646.37 831.201 1640.13 818.347C1624.7 786.614 1606.56 751.857 1584.96 718.719C1566.77 690.815 1547.29 662.691 1518.62 638.979C1471.53 600.018 1412.8 582.931 1364.97 579.583C1345.96 578.252 1328.09 579.452 1310.54 581.154C1285.79 583.554 1262.15 588.012 1237.08 590.688C1207.81 593.815 1173.96 594.523 1138.52 580.716C1099.97 565.7 1068.27 538.628 1050.73 512.904C1039.63 496.613 1033.67 480.459 1027.84 464.168C1024.94 456.049 1022.39 447.768 1019.19 439.39C1009.54 414.117 994.845 385.148 966.452 357.468C934.01 325.839 889.822 301.344 850.022 286.077C836.578 280.932 823.652 276.795 811.686 274.048C765.18 263.374 730.279 268.422 694.957 270.5C664.93 272.266 627.368 271.302 584.054 244.245C569.398 235.09 555.957 223.737 543.833 211.457C525.677 193.079 510.964 172.66 501.629 154.034C487.014 124.876 483.794 98.4968 474.877 71.8924C462.87 36.0612 441.112 -3.01513 405.937 -37.7468C397.145 -46.4275 387.401 -54.6456 376.921 -62.6017C321.725 -104.511 241.439 -132.925 192.509 -118.748" stroke="#D8DDE1" stroke-miterlimit="10"/>
<path d="M1712.04 1002.15C1696.78 974.278 1689.1 949.834 1683.17 923.013C1678.41 901.506 1675.29 878.69 1668.13 853.409C1664.91 842.031 1660.89 829.626 1655.54 816.748C1642.63 785.684 1625.75 751.773 1604.27 719.567C1586.56 692.999 1566.64 666.494 1538.41 644.207C1488.96 605.174 1428.35 589.347 1379.74 587.657C1360.16 586.976 1341.88 588.793 1323.97 591.157C1298.79 594.481 1274.72 599.73 1249.07 602.964C1219.61 606.678 1185.07 607.545 1148.8 592.407C1109.57 576.034 1077.98 546.133 1061.45 518.601C1050.81 500.885 1045.56 483.628 1040.54 466.31C1038.03 457.633 1035.83 448.855 1033 439.966C1024.5 413.266 1010.67 382.849 981.885 354.012C949.323 321.386 903.906 296.806 862.611 282.425C848.659 277.576 835.185 273.853 822.717 271.579C773.999 262.696 737.296 270.501 700.106 275.51C668.632 279.75 629.021 281.253 583.779 254.373C568.539 245.318 554.682 233.902 542.38 221.457C523.776 202.65 509.109 181.502 500.216 162.287C486.104 131.79 484.144 104.339 476.405 76.3034C466.084 38.9092 445.499 -2.39955 410.261 -39.7175C401.568 -48.9232 391.89 -57.7387 381.383 -66.2879C326.274 -111.133 243.545 -142.57 194.643 -127.783" stroke="#D8DDE1" stroke-miterlimit="10"/>
<path d="M1706.41 1007.87C1693.88 977.834 1689.88 951.327 1687.54 923.524C1685.63 900.873 1685.18 877.567 1680.51 851.963C1678.42 840.492 1675.38 828.056 1670.95 815.149C1660.51 784.756 1644.95 751.681 1623.59 720.418C1606.34 695.178 1585.99 670.334 1558.2 649.439C1506.33 610.443 1443.91 595.788 1394.51 595.735C1374.35 595.714 1355.65 598.104 1337.4 601.161C1311.78 605.366 1287.3 611.438 1261.06 615.24C1231.41 619.535 1196.17 620.567 1159.09 604.098C1119.16 586.367 1087.73 553.651 1072.17 524.294C1062.02 505.158 1057.46 486.798 1053.24 468.448C1051.11 459.217 1049.26 449.937 1046.8 440.539C1039.44 412.409 1026.48 380.551 997.312 350.554C964.623 316.933 917.983 292.266 875.191 278.771C860.728 274.216 846.708 270.913 833.741 269.111C782.82 262.034 744.283 272.574 705.244 280.522C672.302 287.228 630.713 291.114 583.494 264.499C567.689 255.516 553.399 244.064 540.915 231.455C521.866 212.22 507.247 190.345 498.791 170.54C485.197 138.707 484.465 110.174 477.921 80.7155C469.265 41.7464 449.847 -1.77717 414.571 -41.6904C405.973 -51.4169 396.365 -60.8341 385.828 -69.9797C330.795 -117.758 245.636 -152.22 196.76 -136.827" stroke="#D8DDE1" stroke-miterlimit="10"/>
<path d="M1700.79 1013.6C1690.98 981.386 1690.72 952.893 1691.92 924.034C1692.91 900.297 1695.07 876.433 1692.9 850.515C1691.93 838.951 1689.86 826.483 1686.36 813.549C1678.33 783.818 1664.21 751.55 1642.9 721.265C1626.17 697.326 1605.33 674.21 1577.98 654.666C1523.64 615.824 1459.49 602.239 1409.28 603.807C1388.55 604.454 1369.43 607.452 1350.82 611.162C1324.78 616.308 1299.86 623.136 1273.04 627.513C1243.2 632.38 1207.24 633.631 1169.37 615.785C1128.73 596.747 1097.5 561.184 1082.88 529.986C1073.25 509.436 1069.35 489.971 1065.93 470.583C1064.2 460.8 1062.68 451.015 1060.6 441.107C1054.38 411.54 1042.25 378.282 1012.74 347.092C979.884 312.516 932.062 287.718 887.776 275.113C872.805 270.853 858.242 267.97 844.771 266.636C791.652 261.377 751.262 274.636 710.392 285.529C675.966 294.702 632.345 301.091 583.221 274.621C566.824 265.748 552.126 254.224 539.464 241.45C519.969 221.789 505.41 199.184 497.38 178.787C484.319 145.616 484.786 115.996 479.451 85.1213C472.445 44.5621 454.186 -1.15713 418.895 -43.6671C410.387 -53.9159 400.838 -63.9188 390.29 -73.6744C335.262 -124.316 247.742 -161.873 198.895 -145.872" stroke="#D8DDE1" stroke-miterlimit="10"/>
<path d="M1695.16 1019.32C1682.24 956.555 1704.54 907.062 1705.28 849.065C1706.02 791.068 1675.19 712.367 1597.77 659.894C1540.88 621.342 1475.08 608.71 1424.06 611.881C1373.04 615.051 1332.07 631.272 1285.03 639.787C1255 645.221 1218.35 646.618 1179.65 627.474C1138.33 607.04 1107.29 568.738 1093.59 535.678C1079.89 502.617 1079.49 472.686 1074.4 441.677C1069.31 410.669 1058.08 375.953 1028.17 343.633C984.076 295.988 911.103 267.599 855.794 264.164C800.486 260.728 758.217 276.703 715.531 290.534C679.606 302.175 633.968 311.067 582.936 284.741C539.578 262.374 508.471 221.542 495.956 187.031C483.441 152.521 485.082 121.806 480.967 89.5241C474.311 37.2962 449.649 -23.7367 394.739 -77.3746C339.83 -131.013 249.838 -171.53 201.017 -154.921" stroke="#D8DDE1" stroke-miterlimit="10"/>
</svg>
